<svg width="20" height="24" viewBox="0 0 20 24" fill="none" xmlns="http://www.w3.org/2000/svg">
<g id="Element">
<path id="Element_2" d="M1.86367 4.06033C1.93443 3.10244 2.50315 2.29143 3.43745 2.07112C4.64512 1.78596 6.741 1.48096 10.1727 1.48096C13.6043 1.48096 15.7002 1.78649 16.9079 2.07059C17.8421 2.29143 18.4109 3.10244 18.4816 4.06033C18.5996 5.65287 18.7491 8.59245 18.7491 13.2736C18.7491 16.9968 18.6944 19.4304 18.6253 21.0197C18.5519 22.7066 17.2461 23.2764 15.8347 22.3491L11.9373 19.7922C11.413 19.4482 10.7997 19.2649 10.1727 19.2649C9.54562 19.2649 8.93227 19.4482 8.40804 19.7922L4.51112 22.3491C3.09922 23.2764 1.79345 22.7066 1.72001 21.0197C1.65033 19.4304 1.59619 16.9968 1.59619 13.2736C1.59619 8.59245 1.74521 5.65287 1.86367 4.06033Z" stroke="#666F8D" stroke-width="2.21244" stroke-linecap="round" stroke-linejoin="round"/>
</g>
</svg>
