<svg width="139" height="27" viewBox="0 0 139 27" fill="none" xmlns="http://www.w3.org/2000/svg">
<path d="M12.6455 26.0154C9.18634 26.0154 6.34568 24.8242 4.12355 22.4417C1.92432 20.0363 0.824709 16.9895 0.824709 13.3012C0.824709 9.58998 1.90141 6.52023 4.05482 4.09192C6.20823 1.66361 9.06035 0.449456 12.6112 0.449456C15.5435 0.449456 17.8916 1.22835 19.6556 2.78613C21.4424 4.32101 22.4733 6.3026 22.7482 8.73091H17.8C17.5709 7.47094 16.9982 6.47441 16.0818 5.74134C15.1884 5.00826 14.0315 4.64173 12.6112 4.64173C10.4349 4.64173 8.77399 5.44353 7.62856 7.04713C6.48313 8.65073 5.91042 10.7354 5.91042 13.3012C5.91042 15.844 6.51749 17.9173 7.73165 19.5209C8.96871 21.1245 10.6067 21.9263 12.6455 21.9263C14.0888 21.9263 15.2915 21.5368 16.2536 20.7579C17.2158 19.9561 17.7771 18.9023 17.9374 17.5965H22.817C22.6795 19.9103 21.7746 21.8461 20.1023 23.4039C18.2467 25.1449 15.7611 26.0154 12.6455 26.0154ZM36.1014 25.5C35.8723 25.2022 35.6891 24.5493 35.5516 23.5413H35.4829C34.9789 24.2973 34.3375 24.8815 33.5586 25.2938C32.7797 25.7062 31.6915 25.9124 30.2941 25.9124C28.4385 25.9124 26.9495 25.4427 25.8269 24.5035C24.7044 23.5642 24.1431 22.2355 24.1431 20.5174C24.1431 18.7305 24.7617 17.4247 25.9987 16.6C27.2358 15.7524 28.9769 15.1682 31.2219 14.8475C32.8713 14.6184 33.9938 14.3893 34.5895 14.1602C35.1851 13.9083 35.4829 13.473 35.4829 12.8545C35.4829 12.213 35.2309 11.709 34.7269 11.3425C34.2229 10.953 33.4899 10.7583 32.5277 10.7583C30.3972 10.7583 29.2632 11.583 29.1258 13.2324H24.9679C25.0366 11.5601 25.7124 10.1742 26.9953 9.07454C28.2781 7.97493 30.1337 7.42512 32.5621 7.42512C37.5103 7.42512 39.9844 9.58998 39.9844 13.9197V22.8884C39.9844 24.2171 40.1906 25.0304 40.603 25.3282V25.5H36.1014ZM31.4281 22.6479C32.711 22.6479 33.7189 22.3157 34.452 21.6514C35.208 20.987 35.586 20.1967 35.586 19.2803V16.6344C35.082 16.9322 33.9938 17.2758 32.3215 17.6653C30.9928 17.9631 30.0536 18.3067 29.5038 18.6961C28.954 19.0627 28.679 19.6354 28.679 20.4143C28.679 21.9034 29.5954 22.6479 31.4281 22.6479ZM51.1339 26.0154C48.4077 26.0154 46.22 25.1335 44.5705 23.3695C42.9211 21.6055 42.0964 19.3834 42.0964 16.7031C42.0964 14.0228 42.8982 11.8007 44.5018 10.0367C46.1283 8.27274 48.2588 7.39076 50.8933 7.39076C53.1154 7.39076 54.9252 7.97493 56.3226 9.14327C57.7201 10.3116 58.5791 11.8808 58.8999 13.851H54.3296C54.1692 13.0492 53.8027 12.3963 53.23 11.8923C52.6573 11.3883 51.9471 11.1363 51.0995 11.1363C49.725 11.1363 48.6712 11.6288 47.9381 12.6139C47.205 13.599 46.8385 14.962 46.8385 16.7031C46.8385 18.4212 47.1936 19.7843 47.9037 20.7923C48.6139 21.7774 49.6562 22.2699 51.0308 22.2699C53.0696 22.2699 54.2494 21.2734 54.5701 19.2803H59.0717C58.9113 21.2275 58.121 22.8426 56.7006 24.1255C55.2803 25.3855 53.4247 26.0154 51.1339 26.0154ZM60.0792 10.9645V7.87184H62.519V2.37378H67.0892V7.87184H70.1132V10.9645H67.0892V20.3112C67.0892 21.4795 67.6734 22.0637 68.8417 22.0637L70.2163 22.0293V25.4656C69.5061 25.5115 68.5325 25.5344 67.2954 25.5344C65.9438 25.5344 64.8098 25.2136 63.8935 24.5722C62.9771 23.9079 62.519 22.8197 62.519 21.3077V10.9645H60.0792ZM88.1548 25.5H83.6532V23.4382H83.5501C82.9087 24.3088 82.1985 24.9502 81.4196 25.3625C80.6636 25.7749 79.69 25.9811 78.4988 25.9811C76.5745 25.9811 75.0739 25.4084 73.9972 24.2629C72.9205 23.1175 72.3822 21.5712 72.3822 19.6239V7.87184H77.0212V18.8336C77.0212 20.9641 77.9948 22.0293 79.942 22.0293C81.0187 22.0293 81.8778 21.6628 82.5192 20.9297C83.1607 20.1967 83.4814 19.2345 83.4814 18.0433V7.87184H88.1548V25.5ZM98.3251 26.0154C95.8052 26.0154 93.835 25.4656 92.4147 24.366C90.9943 23.2435 90.2155 21.7201 90.078 19.7958H94.4077C94.7055 21.743 95.9884 22.7166 98.2564 22.7166C99.2873 22.7166 100.078 22.5333 100.627 22.1668C101.2 21.8003 101.486 21.3077 101.486 20.6892C101.486 20.4601 101.441 20.2539 101.349 20.0707C101.28 19.8874 101.143 19.727 100.937 19.5896C100.753 19.4292 100.582 19.3032 100.421 19.2116C100.284 19.12 100.032 19.0283 99.6652 18.9367C99.2987 18.8451 99.0124 18.7763 98.8062 18.7305C98.6229 18.6847 98.2907 18.6274 97.8097 18.5587C97.3515 18.4671 97.0308 18.3983 96.8475 18.3525C95.8853 18.1693 95.095 17.986 94.4765 17.8027C93.8808 17.5965 93.2508 17.3102 92.5865 16.9436C91.9221 16.5542 91.4182 16.0388 91.0745 15.3973C90.7538 14.733 90.5934 13.9426 90.5934 13.0263C90.5934 11.1936 91.2578 9.79616 92.5865 8.834C93.9381 7.87184 95.6677 7.39076 97.7753 7.39076C100.043 7.39076 101.819 7.91766 103.102 8.97145C104.407 10.0023 105.152 11.4227 105.335 13.2324H101.108C100.925 11.5143 99.7912 10.6552 97.7066 10.6552C96.7673 10.6552 96.0228 10.827 95.473 11.1707C94.9461 11.5143 94.6826 11.9954 94.6826 12.6139C94.6826 12.8201 94.717 13.0148 94.7857 13.1981C94.8774 13.3584 95.0148 13.5074 95.1981 13.6448C95.4043 13.7593 95.599 13.8624 95.7822 13.9541C95.9655 14.0228 96.229 14.103 96.5726 14.1946C96.9162 14.2633 97.214 14.3321 97.466 14.4008C97.718 14.4466 98.0616 14.5153 98.4969 14.607C98.9322 14.6757 99.2758 14.733 99.5278 14.7788C100.261 14.9391 100.856 15.088 101.315 15.2255C101.796 15.34 102.346 15.5462 102.964 15.844C103.583 16.1189 104.064 16.4397 104.407 16.8062C104.774 17.1498 105.083 17.6309 105.335 18.2494C105.61 18.8451 105.747 19.5438 105.747 20.3456C105.747 22.0866 105.06 23.4726 103.686 24.5035C102.334 25.5115 100.547 26.0154 98.3251 26.0154ZM107.581 25.5V20.5174H112.598V25.5H107.581ZM126.606 25.5C126.377 25.2022 126.194 24.5493 126.056 23.5413H125.987C125.484 24.2973 124.842 24.8815 124.063 25.2938C123.284 25.7062 122.196 25.9124 120.799 25.9124C118.943 25.9124 117.454 25.4427 116.332 24.5035C115.209 23.5642 114.648 22.2355 114.648 20.5174C114.648 18.7305 115.266 17.4247 116.503 16.6C117.74 15.7524 119.481 15.1682 121.726 14.8475C123.376 14.6184 124.498 14.3893 125.094 14.1602C125.69 13.9083 125.987 13.473 125.987 12.8545C125.987 12.213 125.735 11.709 125.232 11.3425C124.728 10.953 123.994 10.7583 123.032 10.7583C120.902 10.7583 119.768 11.583 119.63 13.2324H115.472C115.541 11.5601 116.217 10.1742 117.5 9.07454C118.783 7.97493 120.638 7.42512 123.067 7.42512C128.015 7.42512 130.489 9.58998 130.489 13.9197V22.8884C130.489 24.2171 130.695 25.0304 131.108 25.3282V25.5H126.606ZM121.933 22.6479C123.216 22.6479 124.224 22.3157 124.957 21.6514C125.713 20.987 126.091 20.1967 126.091 19.2803V16.6344C125.587 16.9322 124.498 17.2758 122.826 17.6653C121.497 17.9631 120.558 18.3067 120.008 18.6961C119.459 19.0627 119.184 19.6354 119.184 20.4143C119.184 21.9034 120.1 22.6479 121.933 22.6479ZM133.46 25.5V7.87184H138.133V25.5H133.46ZM133.46 5.12281V0.930536H138.133V5.12281H133.46Z" fill="black"/>
</svg>
