<svg width="15" height="19" viewBox="0 0 15 19" fill="none" xmlns="http://www.w3.org/2000/svg">
<g id="Union">
<path fill="black" d="M4.16667 7.03141C3.70643 7.03141 3.33333 7.40451 3.33333 7.86475C3.33333 8.32498 3.70643 8.69808 4.16667 8.69808H10.8333C11.2936 8.69808 11.6667 8.32498 11.6667 7.86475C11.6667 7.40451 11.2936 7.03141 10.8333 7.03141H4.16667Z"/>
<path fill="black" d="M4.16667 10.3647C3.70643 10.3647 3.33333 10.7378 3.33333 11.1981C3.33333 11.6583 3.70643 12.0314 4.16667 12.0314H7.5C7.96024 12.0314 8.33333 11.6583 8.33333 11.1981C8.33333 10.7378 7.96024 10.3647 7.5 10.3647H4.16667Z"/>
<path fill="black" d="M4.16667 13.6981C3.70643 13.6981 3.33333 14.0712 3.33333 14.5314C3.33333 14.9917 3.70643 15.3647 4.16667 15.3647H10.8333C11.2936 15.3647 11.6667 14.9917 11.6667 14.5314C11.6667 14.0712 11.2936 13.6981 10.8333 13.6981H4.16667Z"/>
<path fill="black" fill-rule="evenodd" clip-rule="evenodd" d="M14.899 3.81273C14.8319 3.65043 14.7335 3.50297 14.6093 3.37882L11.9863 0.755858C11.7365 0.505738 11.3976 0.365058 11.0441 0.364746H1.33333C0.979711 0.364746 0.640573 0.505222 0.390524 0.75527C0.140476 1.00532 0 1.34446 0 1.69808V17.3647C0 17.5398 0.0344879 17.7132 0.101494 17.875C0.168499 18.0368 0.266711 18.1837 0.390524 18.3076C0.514334 18.4314 0.661319 18.5296 0.823089 18.5966C0.984861 18.6636 1.15824 18.6981 1.33333 18.6981H13.6667C13.8418 18.6981 14.0151 18.6636 14.1769 18.5966C14.3387 18.5296 14.4857 18.4314 14.6095 18.3076C14.7333 18.1837 14.8315 18.0368 14.8985 17.875C14.9655 17.7132 15 17.5398 15 17.3647V4.32334L14.1667 4.32308L15 4.32512L15 4.32334C15.0002 4.14815 14.9659 3.97465 14.899 3.81273ZM10 4.11475C10 4.8051 10.5596 5.36475 11.25 5.36475H13.3333V17.0314H1.66667V2.03141H10V4.11475ZM12.5715 3.69808L11.6667 2.79326V3.69808H12.5715Z"/>
</g>
</svg>
