<svg width="14" height="18" viewBox="0 0 14 18" fill="none" xmlns="http://www.w3.org/2000/svg">
<g id="Union">
<path d="M2.5 0.53125C1.83696 0.53125 1.20107 0.794642 0.732233 1.26348C0.263392 1.73232 0 2.36821 0 3.03125V14.6979C0 15.361 0.263392 15.9968 0.732233 16.4657C1.20107 16.9345 1.83696 17.1979 2.5 17.1979H10.8333C11.4964 17.1979 12.1323 16.9345 12.6011 16.4657C13.0699 15.9968 13.3333 15.361 13.3333 14.6979V13.8646C13.3333 13.4043 12.9602 13.0312 12.5 13.0312C12.0398 13.0312 11.6667 13.4043 11.6667 13.8646V14.6979C11.6667 14.9189 11.5789 15.1309 11.4226 15.2872C11.2663 15.4435 11.0543 15.5312 10.8333 15.5312H2.5C2.27899 15.5312 2.06702 15.4435 1.91074 15.2872C1.75446 15.1309 1.66667 14.9189 1.66667 14.6979V3.03125C1.66667 2.81024 1.75446 2.59827 1.91074 2.44199C2.06702 2.28571 2.27899 2.19792 2.5 2.19792H10.8333C11.0543 2.19792 11.2663 2.28571 11.4226 2.44199C11.5789 2.59827 11.6667 2.81024 11.6667 3.03125V3.86458C11.6667 4.32482 12.0398 4.69792 12.5 4.69792C12.9602 4.69792 13.3333 4.32482 13.3333 3.86458V3.03125C13.3333 2.36821 13.0699 1.73232 12.6011 1.26348C12.1323 0.794642 11.4964 0.53125 10.8333 0.53125H2.5Z" fill="#D55F5A"/>
<path d="M10.5893 5.77533C10.2638 5.44989 9.73618 5.44989 9.41074 5.77533C9.08531 6.10076 9.08531 6.6284 9.41074 6.95384L10.4882 8.03125H6.66667C6.20643 8.03125 5.83333 8.40435 5.83333 8.86458C5.83333 9.32482 6.20643 9.69792 6.66667 9.69792H10.4882L9.41074 10.7753C9.08531 11.1008 9.08531 11.6284 9.41074 11.9538C9.73618 12.2793 10.2638 12.2793 10.5893 11.9538L13.0893 9.45384C13.4147 9.1284 13.4147 8.60076 13.0893 8.27533L10.5893 5.77533Z" fill="#D55F5A"/>
</g>
</svg>
