<svg width="29" height="29" viewBox="0 0 29 29" fill="none" xmlns="http://www.w3.org/2000/svg">
<g id="Google" clip-path="url(#clip0_445_2705)">
<path id="Vector" d="M28.4866 14.7777C28.4866 13.6305 28.3913 12.7934 28.1851 11.9253H14.7788V17.1029H22.648C22.4894 18.3897 21.6327 20.3274 19.7288 21.6295L19.7021 21.8029L23.9409 25.0114L24.2346 25.0401C26.9317 22.6062 28.4866 19.0252 28.4866 14.7777Z" fill="#4285F4"/>
<path id="Vector_2" d="M14.7788 28.4196C18.6341 28.4196 21.8706 27.1793 24.2346 25.0401L19.7288 21.6296C18.523 22.4512 16.9047 23.0248 14.7788 23.0248C11.0029 23.0248 7.79806 20.591 6.65564 17.2271L6.48818 17.2409L2.08059 20.5739L2.02295 20.7305C4.37101 25.2881 9.19412 28.4196 14.7788 28.4196Z" fill="#34A853"/>
<path id="Vector_3" d="M6.65573 17.2269C6.3543 16.3588 6.17984 15.4286 6.17984 14.4675C6.17984 13.5063 6.3543 12.5762 6.63988 11.7081L6.63189 11.5232L2.16906 8.13672L2.02305 8.20458C1.0553 10.0959 0.5 12.2197 0.5 14.4675C0.5 16.7153 1.0553 18.839 2.02305 20.7303L6.65573 17.2269Z" fill="#FBBC05"/>
<path id="Vector_4" d="M14.7788 5.91033C17.46 5.91033 19.2687 7.04198 20.3 7.98767L24.3298 4.14312C21.8548 1.89532 18.6341 0.515625 14.7788 0.515625C9.19412 0.515625 4.37101 3.64703 2.02295 8.20462L6.63978 11.7081C7.79806 8.34419 11.0029 5.91033 14.7788 5.91033Z" fill="#EA4335"/>
</g>
<defs>
<clipPath id="clip0_445_2705">
<rect width="28" height="28" fill="white" transform="translate(0.5 0.515625)"/>
</clipPath>
</defs>
</svg>
