<svg width="19" height="19" viewBox="0 0 19 19" fill="none" xmlns="http://www.w3.org/2000/svg">
<g id="Union">
<path fill="black" d="M7.5 7.03141C7.5 6.54227 7.68244 6.22944 7.92196 6.02621C8.17959 5.80761 8.5528 5.67725 8.95833 5.67725C9.36387 5.67725 9.73707 5.80761 9.99471 6.02621C10.2342 6.22944 10.4167 6.54227 10.4167 7.03141C10.4167 7.39572 10.3308 7.59797 10.2311 7.74755C10.1148 7.92206 9.96168 8.05967 9.70279 8.29239L9.65086 8.33909C9.38453 8.57879 9.03414 8.90283 8.76697 9.37482C8.49164 9.86124 8.33333 10.449 8.33333 11.1981C8.33333 11.6583 8.70643 12.0314 9.16667 12.0314C9.6269 12.0314 10 11.6583 10 11.1981C10 10.6972 10.1021 10.3995 10.2174 10.1958C10.3409 9.97771 10.5113 9.80696 10.7658 9.57791C10.7887 9.55729 10.8129 9.53576 10.838 9.51332C11.0658 9.31033 11.3777 9.03228 11.6179 8.67205C11.9088 8.23569 12.0833 7.70877 12.0833 7.03141C12.0833 6.06222 11.6929 5.2813 11.073 4.75536C10.4713 4.2448 9.69864 4.01058 8.95833 4.01058C8.21803 4.01058 7.44541 4.2448 6.84367 4.75536C6.22381 5.2813 5.83333 6.06222 5.83333 7.03141C5.83333 7.49165 6.20643 7.86475 6.66667 7.86475C7.1269 7.86475 7.5 7.49165 7.5 7.03141Z"/>
<path fill="black" d="M9.7916 15.0912C10.1012 14.7506 10.0761 14.2236 9.73558 13.914C9.39504 13.6044 8.868 13.6295 8.5584 13.97L8.55007 13.9792C8.24047 14.3197 8.26555 14.8468 8.60609 15.1564C8.94663 15.4659 9.47367 15.4409 9.78327 15.1003L9.7916 15.0912Z"/>
<path fill="black" fill-rule="evenodd" clip-rule="evenodd" d="M9.16667 0.364746C4.10393 0.364746 0 4.46868 0 9.53141C0 14.5942 4.10393 18.6981 9.16667 18.6981C14.2294 18.6981 18.3333 14.5942 18.3333 9.53141C18.3333 4.46868 14.2294 0.364746 9.16667 0.364746ZM1.66667 9.53141C1.66667 5.38915 5.0244 2.03141 9.16667 2.03141C13.3089 2.03141 16.6667 5.38915 16.6667 9.53141C16.6667 13.6737 13.3089 17.0314 9.16667 17.0314C5.0244 17.0314 1.66667 13.6737 1.66667 9.53141Z"/>
</g>
</svg>
