<svg width="17" height="18" viewBox="0 0 17 18" fill="none" xmlns="http://www.w3.org/2000/svg">
<path id="Union" fill="black" fill-rule="evenodd" clip-rule="evenodd" d="M11.3333 0.53125C10.9797 0.53125 10.6406 0.671725 10.3905 0.921774C10.1405 1.17182 10 1.51096 10 1.86458V5.53125H6.33333C5.97971 5.53125 5.64057 5.67172 5.39052 5.92177C5.14047 6.17182 5 6.51096 5 6.86458V11.3646H1.33333C0.979712 11.3646 0.640574 11.5051 0.390524 11.7551C0.140475 12.0052 0 12.3443 0 12.6979V15.8646C0 16.2182 0.140475 16.5573 0.390524 16.8074C0.640574 17.0574 0.979712 17.1979 1.33333 17.1979H15.3333C15.6869 17.1979 16.0261 17.0574 16.2761 16.8074C16.5262 16.5573 16.6667 16.2182 16.6667 15.8646V1.86458C16.6667 1.51096 16.5262 1.17182 16.2761 0.921774C16.0261 0.671725 15.6869 0.53125 15.3333 0.53125H11.3333ZM6.66667 7.19792H10V15.5312H6.66667V7.19792ZM15 15.5312H11.6667V2.19792H15V15.5312ZM5 13.0312V15.5312H1.66667V13.0312H5Z"/>
</svg>
