<svg width="17" height="17" viewBox="0 0 17 17" fill="none" xmlns="http://www.w3.org/2000/svg">
<path id="Union" fill-rule="evenodd" clip-rule="evenodd" d="M8.33333 0.146973C7.57195 0.146973 6.82512 0.355596 6.17396 0.750184L2.00729 3.27519C1.39457 3.64648 0.887935 4.1695 0.536321 4.79372C0.184708 5.41794 -1.19204e-05 6.12227 5.76771e-10 6.83871V12.082C5.76771e-10 13.1871 0.438987 14.2469 1.22039 15.0283C2.00179 15.8097 3.0616 16.2487 4.16667 16.2487H12.5C13.6051 16.2487 14.6649 15.8097 15.4463 15.0283C16.2277 14.2469 16.6667 13.1871 16.6667 12.082V6.83788C16.6665 6.12161 16.4817 5.41729 16.1301 4.79326C15.7785 4.16924 15.272 3.6464 14.6594 3.27519L10.4927 0.750191C9.84156 0.355603 9.09472 0.146973 8.33333 0.146973ZM7.03772 2.17556C7.42841 1.93881 7.87651 1.81364 8.33333 1.81364C8.79016 1.81364 9.23825 1.93881 9.62895 2.17556L13.7956 4.70056C14.1632 4.92328 14.4671 5.237 14.6781 5.61141C14.889 5.98578 14.9999 6.40818 15 6.83788V12.082C15 12.7451 14.7366 13.381 14.2678 13.8498C13.7989 14.3187 13.163 14.582 12.5 14.582H11.6667V12.082C11.6667 11.198 11.3155 10.3501 10.6904 9.72502C10.0652 9.0999 9.21739 8.74871 8.33333 8.74871C7.44928 8.74871 6.60143 9.0999 5.97631 9.72502C5.35119 10.3501 5 11.198 5 12.082V14.582H4.16667C3.50363 14.582 2.86774 14.3187 2.3989 13.8498C1.93006 13.381 1.66667 12.7451 1.66667 12.082V6.83871C1.66666 6.40884 1.77749 5.98622 1.98846 5.61169C2.19943 5.23715 2.50341 4.92335 2.87104 4.70057L7.03772 2.17556ZM9.51184 10.9035C9.8244 11.2161 10 11.64 10 12.082V14.582H6.66667V12.082C6.66667 11.64 6.84226 11.2161 7.15482 10.9035C7.46738 10.591 7.8913 10.4154 8.33333 10.4154C8.77536 10.4154 9.19928 10.591 9.51184 10.9035Z" fill="black"/>
</svg>
