<svg width="89" height="88" viewBox="0 0 89 88" fill="none" xmlns="http://www.w3.org/2000/svg">
<rect x="0.888184" y="0.554199" width="87.2235" height="87.2235" rx="43.6117" fill="#5A74EB"/>
<path fill-rule="evenodd" clip-rule="evenodd" d="M54.7926 42.1069L57.4515 38.5647C58.7688 36.8097 59.3235 34.6473 59.0137 32.4742C58.7038 30.301 57.5685 28.3813 55.8135 27.064C52.193 24.347 47.032 25.0772 44.3128 28.702L29.6835 48.1911C25.3241 54.0043 29.2025 60.9289 29.3693 61.2214C29.5946 61.6136 29.9738 61.8931 30.4158 61.9949C30.5415 62.0253 31.7548 62.2939 33.447 62.2939C36.1835 62.2939 40.1658 61.5941 42.8222 58.0538L54.4541 42.5578C54.5217 42.4943 54.5848 42.4239 54.6424 42.3472C54.7003 42.2703 54.7503 42.1899 54.7926 42.1069ZM31.8675 58.9421C33.5596 59.1479 37.828 59.2931 40.2221 56.1016L51.0471 41.6807L43.1069 35.7192L32.2813 50.1411C29.8395 53.3998 31.1828 57.3886 31.8675 58.9421ZM45.0573 33.1211L52.9986 39.0809L54.8515 36.6125C56.496 34.4242 56.0518 31.3063 53.8635 29.6618C51.673 28.0217 48.553 28.4658 46.9107 30.652L45.0573 33.1211Z" fill="white"/>
<path d="M62.7548 61.7266H48.938C48.041 61.7266 47.313 60.9986 47.313 60.1016C47.313 59.2046 48.041 58.4766 48.938 58.4766H62.7548C63.6518 58.4766 64.3798 59.2046 64.3798 60.1016C64.3798 60.9986 63.6518 61.7266 62.7548 61.7266Z" fill="white"/>
</svg>
