<svg width="88" height="88" viewBox="0 0 88 88" fill="none" xmlns="http://www.w3.org/2000/svg">
<rect x="0.231445" y="0.214355" width="87.2235" height="87.2235" rx="43.6117" fill="#5A74EB"/>
<path opacity="0.4" d="M50.0607 31.0138C51.4976 31.0138 52.8775 31.5797 53.8821 32.5882C54.8938 33.6059 55.4543 34.973 55.452 36.396V39.3537C55.4401 39.7007 55.1575 39.9825 54.8036 39.9918H32.1936C31.8421 39.9802 31.5595 39.6984 31.5521 39.3537V36.396C31.5262 33.4499 33.9392 31.0441 36.9412 31.0138H50.0607ZM55.8346 22.1257C61.0524 22.1257 65.2942 26.2852 65.2942 31.4018V35.8105C65.2942 36.7886 64.4867 37.5851 63.4868 37.5851C62.4893 37.5851 61.6794 36.7886 61.6794 35.8105V31.4018C61.6794 28.2415 59.0574 25.6703 55.8346 25.6703H52.0512C51.0537 25.6703 50.2438 24.8785 50.2438 23.9003C50.2438 22.9199 51.0537 22.1257 52.0512 22.1257H55.8346ZM35.0156 22.125C36.0131 22.125 36.8229 22.9192 36.8229 23.8996C36.8229 24.8778 36.0154 25.672 35.0156 25.672L31.1467 25.6743C27.9357 25.6789 25.3232 28.2431 25.3232 31.3941V35.8098C25.3232 36.7879 24.5109 37.5844 23.5134 37.5844C22.5159 37.5844 21.7061 36.7879 21.7061 35.8098V31.3941C21.7061 26.2891 25.9407 22.132 31.1443 22.1273L35.0156 22.125Z" fill="white"/>
<path d="M67.8176 43.5981H19.1848C18.1873 43.5981 17.375 44.3923 17.375 45.3728C17.375 46.3509 18.1873 47.1428 19.1848 47.1428H21.7046V55.6061C21.7046 60.7111 25.9416 64.8682 31.1452 64.8729L35.0141 64.8752C36.014 64.8752 36.8215 64.0811 36.8239 63.1006C36.8239 62.1224 36.014 61.3283 35.0165 61.3283L31.15 61.3259C27.9366 61.3213 25.3217 58.7571 25.3217 55.6061V47.1428H31.5514V49.4973C31.5276 52.4434 33.9382 54.8515 36.9403 54.8795H50.0597C53.0641 54.8515 55.4748 52.4434 55.451 49.4973V47.1428H61.6806V55.5968C61.6806 58.7595 59.0586 61.3283 55.8358 61.3283H52.0524C51.0525 61.3283 50.2426 62.1224 50.2426 63.1006C50.2426 64.0811 51.0525 64.8752 52.0524 64.8752H55.8358C61.0513 64.8752 65.2954 60.7158 65.2954 55.5968V47.1428H67.8176C68.8151 47.1428 69.625 46.3509 69.625 45.3728C69.625 44.3923 68.8151 43.5981 67.8176 43.5981Z" fill="white"/>
</svg>
