<svg width="5" height="24" viewBox="0 0 5 24" fill="none" xmlns="http://www.w3.org/2000/svg">
<g id="Element">
<path id="Element_2" d="M2.14221 3.80883C1.82374 3.80883 1.51831 3.68232 1.29311 3.45713C1.06792 3.23193 0.941406 2.9265 0.941406 2.60803C0.941406 2.28956 1.06792 1.98413 1.29311 1.75893C1.51831 1.53374 1.82374 1.40723 2.14221 1.40723" stroke="#666F8D" stroke-width="1.54871" stroke-linecap="round" stroke-linejoin="round"/>
<path id="Element_3" d="M2.14258 3.80883C2.46105 3.80883 2.76648 3.68232 2.99167 3.45713C3.21687 3.23193 3.34338 2.9265 3.34338 2.60803C3.34338 2.28956 3.21687 1.98413 2.99167 1.75893C2.76648 1.53374 2.46105 1.40723 2.14258 1.40723" stroke="#666F8D" stroke-width="1.54871" stroke-linecap="round" stroke-linejoin="round"/>
<path id="Element_4" d="M2.14245 23.0217C1.82398 23.0217 1.51855 22.8952 1.29336 22.67C1.06816 22.4448 0.94165 22.1394 0.94165 21.8209C0.94165 21.5024 1.06816 21.197 1.29336 20.9718C1.51855 20.7466 1.82398 20.6201 2.14245 20.6201" stroke="#666F8D" stroke-width="1.54871" stroke-linecap="round" stroke-linejoin="round"/>
<path id="Element_5" d="M2.14258 23.0217C2.46105 23.0217 2.76648 22.8952 2.99167 22.67C3.21687 22.4448 3.34338 22.1394 3.34338 21.8209C3.34338 21.5024 3.21687 21.197 2.99167 20.9718C2.76648 20.7466 2.46105 20.6201 2.14258 20.6201" stroke="#666F8D" stroke-width="1.54871" stroke-linecap="round" stroke-linejoin="round"/>
<path id="Element_6" d="M2.14245 13.4148C1.82398 13.4148 1.51855 13.2883 1.29336 13.0631C1.06816 12.8379 0.94165 12.5325 0.94165 12.214C0.94165 11.8955 1.06816 11.5901 1.29336 11.3649C1.51855 11.1397 1.82398 11.0132 2.14245 11.0132" stroke="#666F8D" stroke-width="1.54871" stroke-linecap="round" stroke-linejoin="round"/>
<path id="Element_7" d="M2.14258 13.4148C2.46105 13.4148 2.76648 13.2883 2.99167 13.0631C3.21687 12.8379 3.34338 12.5325 3.34338 12.214C3.34338 11.8955 3.21687 11.5901 2.99167 11.3649C2.76648 11.1397 2.46105 11.0132 2.14258 11.0132" stroke="#666F8D" stroke-width="1.54871" stroke-linecap="round" stroke-linejoin="round"/>
</g>
</svg>
