<svg width="19" height="19" viewBox="0 0 19 19" fill="none" xmlns="http://www.w3.org/2000/svg">
<g id="Union">
<path fill="black" fill-rule="evenodd" clip-rule="evenodd" d="M9.16667 5.86458C8.28261 5.86458 7.43476 6.21577 6.80964 6.84089C6.18452 7.46601 5.83333 8.31386 5.83333 9.19792C5.83333 10.082 6.18452 10.9298 6.80964 11.5549C7.43476 12.1801 8.28261 12.5312 9.16667 12.5312C10.0507 12.5312 10.8986 12.1801 11.5237 11.5549C12.1488 10.9298 12.5 10.082 12.5 9.19792C12.5 8.31386 12.1488 7.46601 11.5237 6.84089C10.8986 6.21577 10.0507 5.86458 9.16667 5.86458ZM7.98815 8.0194C8.30071 7.70684 8.72464 7.53125 9.16667 7.53125C9.60869 7.53125 10.0326 7.70684 10.3452 8.0194C10.6577 8.33196 10.8333 8.75589 10.8333 9.19792C10.8333 9.63994 10.6577 10.0639 10.3452 10.3764C10.0326 10.689 9.60869 10.8646 9.16667 10.8646C8.72464 10.8646 8.30071 10.689 7.98815 10.3764C7.67559 10.0639 7.5 9.63994 7.5 9.19792C7.5 8.75589 7.67559 8.33196 7.98815 8.0194Z"/>
<path fill="black" fill-rule="evenodd" clip-rule="evenodd" d="M8.3175 0.03125C7.93896 0.03125 7.60798 0.286386 7.51162 0.652456L7.08932 2.25679L5.74762 2.82238L4.72057 1.90865C4.39082 1.61528 3.88951 1.6299 3.57741 1.94199L1.91074 3.60866C1.60883 3.91058 1.58395 4.39185 1.85314 4.72329L2.75325 5.83154L2.20128 7.18948L0.643878 7.55307C0.266767 7.64111 0 7.97733 0 8.36458V10.0312C0 10.407 0.251489 10.7363 0.614012 10.8352L2.22375 11.2743L2.79087 12.6197L1.87805 13.6433C1.58404 13.973 1.59838 14.4748 1.91074 14.7872L3.57741 16.4538C3.87974 16.7562 4.36181 16.7806 4.6932 16.5105L5.80107 15.6074L7.12563 16.1522L7.52536 17.7353C7.6188 18.1053 7.95168 18.3646 8.33333 18.3646H10C10.3815 18.3646 10.7143 18.1055 10.8079 17.7357L11.2086 16.152L12.5775 15.585C12.7153 15.7005 12.8733 15.8362 13.0305 15.9731C13.1867 16.1091 13.3319 16.2373 13.4381 16.3316C13.4912 16.3786 13.5344 16.4172 13.5643 16.4438L13.6095 16.4843C13.9391 16.78 14.4429 16.7669 14.7559 16.4538L16.4226 14.7872C16.7293 14.4805 16.7494 13.9898 16.4689 13.6589L15.5612 12.5885L16.1229 11.2318L17.7096 10.8195C18.0769 10.724 18.3333 10.3924 18.3333 10.0129V8.36458C18.3333 7.98348 18.0748 7.65094 17.7055 7.55698L16.1286 7.15579L15.5683 5.80236L16.4698 4.73587C16.7494 4.405 16.7289 3.91501 16.4226 3.60866L14.7559 1.94199C14.4483 1.6344 13.9559 1.61515 13.6252 1.89779L12.5666 2.80265L11.1655 2.22658L10.7518 0.652723C10.6555 0.286522 10.3245 0.03125 9.94583 0.03125H8.3175ZM14.7013 14.1514L14.1312 14.7215L14.1249 14.7161C13.8172 14.4481 13.4207 14.109 13.1972 13.9492C12.9631 13.7819 12.6594 13.7471 12.3936 13.8572L10.1844 14.7722C9.9413 14.8729 9.76002 15.0825 9.69546 15.3377L9.35127 16.6979H8.9824L8.6388 15.3372C8.57416 15.0812 8.39203 14.871 8.14786 14.7706L5.97619 13.8772C5.69341 13.7609 5.36963 13.8088 5.13263 14.002L4.22362 14.743L3.64576 14.1652L4.38528 13.3359C4.59938 13.0958 4.65618 12.754 4.53123 12.4575L3.60206 10.2534C3.50265 10.0176 3.30039 9.84048 3.05349 9.77313L1.66667 9.3948V9.02577L3.00029 8.71443C3.26375 8.65292 3.48095 8.46734 3.58283 8.21671L4.48283 6.00254C4.59729 5.72094 4.54934 5.39934 4.35769 5.16338L3.6206 4.25583L4.20007 3.67636L5.03276 4.41718C5.27282 4.63076 5.61429 4.68729 5.91037 4.56248L8.11454 3.63331C8.35277 3.53288 8.5309 3.32757 8.59671 3.07754L8.95987 1.69792H9.30325L9.65905 3.05144C9.72546 3.30409 9.9065 3.51098 10.1481 3.61031L12.4039 4.53781C12.6931 4.65672 13.0246 4.60372 13.2623 4.40054L14.1223 3.66542L14.7022 4.24526L13.9677 5.11412C13.7665 5.35223 13.715 5.68276 13.8342 5.97082L14.7484 8.17915C14.8489 8.42202 15.0581 8.60321 15.3129 8.66802L16.6667 9.01245V9.36845L15.3021 9.72303C15.0491 9.78876 14.8417 9.96934 14.7417 10.2108L13.8267 12.4208C13.7073 12.7093 13.7591 13.0404 13.9611 13.2786L14.7013 14.1514Z"/>
</g>
</svg>
