<svg width="24" height="25" viewBox="0 0 24 25" fill="none" xmlns="http://www.w3.org/2000/svg">
<g id="Line Rounded/Share 3">
<path id="Element" d="M15.5216 17.8009L7.83971 14.3091M15.5216 7.32557L7.83971 10.8173M22.1559 5.23049C22.1559 6.9661 20.7488 8.37309 19.0133 8.37309C17.2777 8.37309 15.8707 6.9661 15.8707 5.23049C15.8707 3.49488 17.2777 2.08789 19.0133 2.08789C20.7488 2.08789 22.1559 3.49488 22.1559 5.23049ZM8.18852 12.2141C8.18852 13.9496 6.78153 15.3567 5.04592 15.3567C3.31031 15.3567 1.90332 13.9496 1.90332 12.2141C1.90332 10.4785 3.31031 9.07147 5.04592 9.07147C6.78153 9.07147 8.18852 10.4785 8.18852 12.2141ZM22.1559 19.1976C22.1559 20.9331 20.7488 22.3402 19.0133 22.3402C17.2777 22.3402 15.8707 20.9331 15.8707 19.1976C15.8707 17.462 17.2777 16.055 19.0133 16.055C20.7488 16.055 22.1559 17.462 22.1559 19.1976Z" stroke="#666F8D" stroke-width="2.21244" stroke-linecap="round" stroke-linejoin="round"/>
</g>
</svg>
