<svg width="18" height="18" viewBox="0 0 18 18" fill="none" xmlns="http://www.w3.org/2000/svg">
<path d="M13.2937 8.3C13.7011 12.0628 15.3002 13.2 15.3002 13.2H2.7002C2.7002 13.2 4.8002 11.7067 4.8002 6.48C4.8002 5.29183 5.24269 4.15232 6.03035 3.31216C6.818 2.472 7.88629 2 9.0002 2C9.23632 2 9.4704 2.02121 9.7002 2.06264" stroke="black" stroke-opacity="0.4" stroke-width="1.05" stroke-linecap="round" stroke-linejoin="round"/>
<path d="M13.9 6.2C15.0598 6.2 16 5.2598 16 4.1C16 2.9402 15.0598 2 13.9 2C12.7403 2 11.8 2.9402 11.8 4.1C11.8 5.2598 12.7403 6.2 13.9 6.2Z" stroke="black" stroke-opacity="0.4" stroke-width="1.05" stroke-linecap="round" stroke-linejoin="round"/>
<path d="M10.2108 15.3C10.0878 15.5122 9.91111 15.6883 9.69858 15.8107C9.48604 15.9331 9.24508 15.9975 8.99982 15.9975C8.75455 15.9975 8.51359 15.9331 8.30106 15.8107C8.08853 15.6883 7.91189 15.5122 7.78882 15.3" stroke="#131927" stroke-width="1.05" stroke-linecap="round" stroke-linejoin="round"/>
</svg>
