<svg width="160" height="56" viewBox="0 0 160 56" fill="none" xmlns="http://www.w3.org/2000/svg">
<g clip-path="url(#clip0_7007_3177)">
<path fill-rule="evenodd" clip-rule="evenodd" d="M28.5948 11.9342C26.774 11.9342 25.0278 12.6399 23.7403 13.8959L17.5278 19.9569V22.7312C17.5278 24.6912 18.3908 26.4546 19.7663 27.6795C18.3908 28.9043 17.5278 30.6677 17.5278 32.6277V35.402L23.7403 41.463C25.0278 42.7191 26.774 43.4247 28.5948 43.4247C30.6038 43.4247 32.4113 42.5828 33.6667 41.2408C34.9222 42.5828 36.7296 43.4247 38.7387 43.4247C40.5595 43.4247 42.3056 42.7191 43.5931 41.463L49.8056 35.402V32.6277C49.8056 30.6677 48.9427 28.9043 47.5672 27.6795C48.9427 26.4546 49.8056 24.6912 49.8056 22.7312V19.9569L43.5931 13.8959C42.3056 12.6399 40.5595 11.9342 38.7387 11.9342C36.7296 11.9342 34.9222 12.7761 33.6667 14.1181C32.4113 12.7761 30.6038 11.9342 28.5948 11.9342ZM38.3138 27.6795C38.2364 27.6106 38.1604 27.5398 38.086 27.4672L33.6667 23.1557L29.2474 27.4672C29.173 27.5398 29.0971 27.6106 29.0197 27.6795C29.0971 27.7483 29.173 27.8191 29.2474 27.8917L33.6667 32.2032L38.086 27.8917C38.1604 27.8191 38.2364 27.7483 38.3138 27.6795ZM35.4599 35.402V36.727C35.4599 38.4936 36.9279 39.9258 38.7387 39.9258C39.6083 39.9258 40.4422 39.5888 41.0571 38.9889L46.2192 33.9527V32.6277C46.2192 30.8611 44.7512 29.4289 42.9405 29.4289C42.0709 29.4289 41.2369 29.7659 40.622 30.3658L35.4599 35.402ZM31.8735 35.402L26.7114 30.3658C26.0965 29.7659 25.2626 29.4289 24.393 29.4289C22.5822 29.4289 21.1142 30.8611 21.1142 32.6277V33.9527L26.2763 38.9889C26.8912 39.5888 27.7252 39.9258 28.5948 39.9258C30.4055 39.9258 31.8735 38.4936 31.8735 36.727V35.402ZM31.8735 18.6319V19.9569L26.7114 24.9931C26.0965 25.593 25.2626 25.93 24.393 25.93C22.5822 25.93 21.1142 24.4978 21.1142 22.7312V21.4062L26.2763 16.3701C26.8912 15.7702 27.7252 15.4332 28.5948 15.4332C30.4055 15.4332 31.8735 16.8653 31.8735 18.6319ZM40.622 24.9931L35.4599 19.9569V18.6319C35.4599 16.8653 36.9279 15.4332 38.7387 15.4332C39.6083 15.4332 40.4422 15.7702 41.0571 16.3701L46.2192 21.4062V22.7312C46.2192 24.4978 44.7512 25.93 42.9405 25.93C42.0709 25.93 41.2369 25.593 40.622 24.9931Z" fill="black"/>
</g>
<path d="M69.626 20.0364V35.1666H66.2487V20.0364H69.626ZM74.2295 20.0364V22.6655H61.7388V20.0364H74.2295ZM78.9057 19.2051V35.1666H75.6636V19.2051H78.9057ZM78.4797 29.1499L77.6691 29.1707C77.6691 28.3809 77.7661 27.6569 77.9601 26.9988C78.161 26.3337 78.445 25.7553 78.8122 25.2634C79.1794 24.7715 79.6193 24.3905 80.132 24.1203C80.6515 23.8501 81.2231 23.7151 81.8466 23.7151C82.4008 23.7151 82.9065 23.7947 83.3637 23.9541C83.821 24.1134 84.2159 24.3663 84.5484 24.7126C84.8809 25.059 85.1373 25.5128 85.3174 26.074C85.4975 26.6351 85.5876 27.3175 85.5876 28.1211V35.1666H82.3246V28.1003C82.3246 27.6223 82.2553 27.2482 82.1168 26.978C81.9851 26.7078 81.7911 26.5173 81.5348 26.4065C81.2854 26.2956 80.9806 26.2402 80.6204 26.2402C80.1978 26.2402 79.8479 26.3164 79.5708 26.4688C79.2937 26.6143 79.0755 26.8187 78.9161 27.0819C78.7568 27.3452 78.6425 27.6535 78.5732 28.0068C78.5109 28.3601 78.4797 28.7411 78.4797 29.1499ZM93.0072 35.3745C92.1135 35.3745 91.3133 35.2324 90.6067 34.9484C89.9001 34.6644 89.3008 34.2729 88.809 33.7741C88.324 33.2684 87.9534 32.6865 87.6971 32.0284C87.4407 31.3702 87.3126 30.6671 87.3126 29.9189V29.524C87.3126 28.6857 87.4303 27.9133 87.6659 27.2066C87.9014 26.5 88.2443 25.8869 88.6947 25.3673C89.1519 24.8408 89.713 24.4355 90.3781 24.1515C91.0432 23.8605 91.8017 23.7151 92.6539 23.7151C93.4506 23.7151 94.1606 23.8467 94.7841 24.1099C95.4076 24.3663 95.9342 24.7369 96.3637 25.2218C96.7932 25.6999 97.1188 26.2783 97.3405 26.9572C97.5691 27.6292 97.6834 28.3844 97.6834 29.2226V30.5527H88.6219V28.464H94.5036V28.2146C94.5036 27.8197 94.4308 27.4734 94.2853 27.1755C94.1468 26.8776 93.939 26.649 93.6618 26.4896C93.3917 26.3234 93.0487 26.2402 92.6331 26.2402C92.2382 26.2402 91.9091 26.3234 91.6459 26.4896C91.3826 26.6559 91.1713 26.8914 91.012 27.1962C90.8596 27.4941 90.7487 27.844 90.6795 28.2458C90.6102 28.6407 90.5755 29.0667 90.5755 29.524V29.9189C90.5755 30.3553 90.6344 30.7536 90.7522 31.1139C90.87 31.4741 91.0432 31.7824 91.2718 32.0387C91.5004 32.2951 91.7775 32.496 92.1031 32.6415C92.4287 32.7869 92.7993 32.8597 93.215 32.8597C93.7277 32.8597 94.2161 32.7627 94.6802 32.5687C95.1444 32.3678 95.5462 32.0561 95.8857 31.6335L97.4028 33.3689C97.1742 33.7014 96.8521 34.0235 96.4364 34.3353C96.0277 34.6401 95.5358 34.8895 94.9608 35.0835C94.3858 35.2775 93.7346 35.3745 93.0072 35.3745ZM102.516 26.5416V35.1666H99.2733V23.9229H102.318L102.516 26.5416ZM105.872 23.8398L105.82 26.8637C105.681 26.8429 105.501 26.8256 105.28 26.8118C105.058 26.791 104.867 26.7806 104.708 26.7806C104.292 26.7806 103.932 26.8325 103.627 26.9365C103.33 27.0334 103.08 27.1789 102.879 27.3729C102.685 27.5669 102.54 27.8094 102.443 28.1003C102.346 28.3844 102.297 28.7134 102.297 29.0875L101.684 28.7862C101.684 28.0449 101.757 27.366 101.902 26.7494C102.048 26.1328 102.259 25.5994 102.536 25.1491C102.813 24.6919 103.153 24.3386 103.555 24.0892C103.956 23.8398 104.414 23.7151 104.926 23.7151C105.093 23.7151 105.262 23.7254 105.436 23.7462C105.609 23.767 105.754 23.7982 105.872 23.8398ZM112.824 32.4856V27.6639C112.824 27.3244 112.772 27.0334 112.668 26.791C112.564 26.5485 112.401 26.358 112.18 26.2194C111.958 26.0809 111.671 26.0116 111.317 26.0116C111.019 26.0116 110.76 26.0636 110.538 26.1675C110.323 26.2714 110.157 26.4203 110.039 26.6143C109.928 26.8083 109.873 27.0473 109.873 27.3313H106.631C106.631 26.8256 106.745 26.3545 106.974 25.9181C107.202 25.4816 107.528 25.0971 107.95 24.7646C108.38 24.4321 108.893 24.1757 109.488 23.9956C110.084 23.8086 110.753 23.7151 111.494 23.7151C112.374 23.7151 113.157 23.864 113.842 24.1619C114.535 24.4529 115.082 24.8928 115.484 25.4816C115.886 26.0636 116.087 26.7979 116.087 27.6847V32.3921C116.087 33.071 116.125 33.6044 116.201 33.9924C116.284 34.3734 116.402 34.7059 116.555 34.99V35.1666H113.281C113.129 34.841 113.015 34.4392 112.938 33.9612C112.862 33.4763 112.824 32.9844 112.824 32.4856ZM113.229 28.3082L113.25 30.0955H111.639C111.279 30.0955 110.967 30.1405 110.704 30.2306C110.448 30.3207 110.24 30.4454 110.081 30.6047C109.921 30.7571 109.804 30.9372 109.727 31.1451C109.658 31.346 109.623 31.5677 109.623 31.8101C109.623 32.0387 109.679 32.2466 109.79 32.4336C109.9 32.6137 110.053 32.7558 110.247 32.8597C110.441 32.9636 110.666 33.0156 110.922 33.0156C111.345 33.0156 111.705 32.9324 112.003 32.7662C112.308 32.5999 112.543 32.399 112.71 32.1634C112.876 31.921 112.959 31.6958 112.959 31.488L113.738 32.8389C113.614 33.116 113.461 33.4035 113.281 33.7014C113.101 33.9924 112.873 34.266 112.595 34.5223C112.318 34.7717 111.982 34.9761 111.587 35.1355C111.199 35.2948 110.732 35.3745 110.185 35.3745C109.478 35.3745 108.837 35.2324 108.262 34.9484C107.687 34.6574 107.226 34.2591 106.88 33.7534C106.541 33.2476 106.371 32.6657 106.371 32.0076C106.371 31.4187 106.478 30.8957 106.693 30.4384C106.908 29.9812 107.23 29.5932 107.659 29.2746C108.096 28.9559 108.643 28.7169 109.301 28.5576C109.959 28.3913 110.728 28.3082 111.608 28.3082H113.229ZM121.47 26.0843V39.4895H118.228V23.9229H121.252L121.47 26.0843ZM128.484 29.4201V29.6383C128.484 30.4558 128.391 31.2143 128.204 31.914C128.017 32.6068 127.736 33.213 127.362 33.7326C126.995 34.2522 126.541 34.6574 126.001 34.9484C125.46 35.2324 124.833 35.3745 124.12 35.3745C123.441 35.3745 122.852 35.2324 122.353 34.9484C121.861 34.6574 121.446 34.2556 121.106 33.743C120.774 33.2234 120.503 32.6311 120.296 31.966C120.095 31.294 119.939 30.577 119.828 29.8149V29.3889C119.939 28.5783 120.098 27.8267 120.306 27.1339C120.514 26.4411 120.784 25.8419 121.117 25.3361C121.449 24.8235 121.861 24.4251 122.353 24.1411C122.845 23.8571 123.43 23.7151 124.109 23.7151C124.816 23.7151 125.443 23.8501 125.99 24.1203C126.537 24.3905 126.995 24.7785 127.362 25.2842C127.736 25.783 128.017 26.3822 128.204 27.0819C128.391 27.7816 128.484 28.561 128.484 29.4201ZM125.232 29.6383V29.4201C125.232 28.9628 125.197 28.5437 125.128 28.1627C125.058 27.7747 124.948 27.4387 124.795 27.1547C124.643 26.8637 124.442 26.6386 124.192 26.4792C123.943 26.3199 123.638 26.2402 123.278 26.2402C122.89 26.2402 122.561 26.3026 122.291 26.4273C122.021 26.552 121.802 26.7356 121.636 26.978C121.47 27.2136 121.349 27.5045 121.272 27.8509C121.203 28.1973 121.165 28.5922 121.158 29.0356V30.1786C121.165 30.6982 121.238 31.1624 121.376 31.5711C121.522 31.9729 121.747 32.2881 122.052 32.5168C122.364 32.7384 122.779 32.8493 123.299 32.8493C123.666 32.8493 123.971 32.7696 124.213 32.6103C124.463 32.444 124.66 32.2119 124.806 31.914C124.958 31.6162 125.065 31.2732 125.128 30.8853C125.197 30.4973 125.232 30.0817 125.232 29.6383ZM135.925 23.9229V26.1987H129.253V23.9229H135.925ZM130.781 21.1379H134.033V31.6439C134.033 31.9556 134.071 32.1946 134.148 32.3609C134.224 32.5272 134.349 32.6449 134.522 32.7142C134.695 32.7766 134.917 32.8077 135.187 32.8077C135.381 32.8077 135.547 32.8008 135.686 32.7869C135.824 32.7731 135.952 32.7558 136.07 32.735V35.0835C135.793 35.1736 135.499 35.2428 135.187 35.2913C134.875 35.3467 134.536 35.3745 134.168 35.3745C133.469 35.3745 132.863 35.2602 132.35 35.0315C131.844 34.8029 131.456 34.4427 131.186 33.9508C130.916 33.452 130.781 32.8043 130.781 32.0076V21.1379ZM140.902 19.2051V35.1666H137.65V19.2051H140.902ZM146.628 33.8677L149.569 23.9229H153.06L148.54 36.8501C148.443 37.1341 148.311 37.4389 148.145 37.7645C147.986 38.0901 147.768 38.4019 147.49 38.6998C147.22 38.9977 146.874 39.2401 146.451 39.4272C146.029 39.6142 145.509 39.7078 144.893 39.7078C144.581 39.7078 144.338 39.6904 144.165 39.6558C143.999 39.6281 143.777 39.5796 143.5 39.5103L143.49 37.1514C143.58 37.1514 143.659 37.1514 143.729 37.1514C143.805 37.1584 143.881 37.1618 143.957 37.1618C144.345 37.1618 144.657 37.1203 144.893 37.0371C145.135 36.954 145.322 36.8293 145.454 36.663C145.592 36.5037 145.703 36.2993 145.786 36.0499L146.628 33.8677ZM145.641 23.9229L147.968 31.9244L148.363 35.3641L146.171 35.4784L142.149 23.9229H145.641Z" fill="black"/>
<defs>
<clipPath id="clip0_7007_3177">
<rect width="32.2778" height="32.2778" fill="white" transform="translate(17.5278 11.5278)"/>
</clipPath>
</defs>
</svg>
