<svg width="213" height="74" viewBox="0 0 213 74" fill="none" xmlns="http://www.w3.org/2000/svg">
<g clip-path="url(#clip0_1042_169)">
<path fill-rule="evenodd" clip-rule="evenodd" d="M28.7024 14.3149C26.077 14.3149 23.5593 15.3324 21.7029 17.1435L12.7451 25.8828V29.883C12.7451 32.7092 13.9894 35.2518 15.9727 37.0179C13.9894 38.7839 12.7451 41.3265 12.7451 44.1527V48.153L21.7029 56.8922C23.5593 58.7034 26.077 59.7208 28.7024 59.7208C31.5992 59.7208 34.2054 58.5069 36.0156 56.5719C37.8258 58.5069 40.432 59.7208 43.3288 59.7208C45.9542 59.7208 48.472 58.7034 50.3284 56.8922L59.2861 48.153V44.1527C59.2861 41.3265 58.0418 38.7839 56.0585 37.0179C58.0418 35.2518 59.2861 32.7092 59.2861 29.883V25.8828L50.3284 17.1435C48.472 15.3324 45.9542 14.3149 43.3288 14.3149C40.432 14.3149 37.8258 15.5289 36.0156 17.4638C34.2054 15.5289 31.5992 14.3149 28.7024 14.3149ZM42.7161 37.0179C42.6045 36.9185 42.4951 36.8165 42.3878 36.7118L36.0156 30.4951L29.6435 36.7118C29.5362 36.8165 29.4267 36.9185 29.3151 37.0179C29.4267 37.1172 29.5362 37.2192 29.6435 37.3239L36.0156 43.5406L42.3878 37.3239C42.4951 37.2192 42.6045 37.1172 42.7161 37.0179ZM38.6012 48.153V50.0634C38.6012 52.6107 40.7179 54.6757 43.3288 54.6757C44.5826 54.6757 45.7852 54.1898 46.6718 53.3248L54.1149 46.0632V44.1527C54.1149 41.6054 51.9983 39.5404 49.3873 39.5404C48.1335 39.5404 46.931 40.0263 46.0444 40.8913L38.6012 48.153ZM33.43 48.153L25.9868 40.8913C25.1002 40.0263 23.8978 39.5404 22.6439 39.5404C20.033 39.5404 17.9163 41.6054 17.9163 44.1527V46.0632L25.3595 53.3248C26.2461 54.1898 27.4486 54.6757 28.7024 54.6757C31.3133 54.6757 33.43 52.6107 33.43 50.0634V48.153ZM33.43 23.9723V25.8828L25.9868 33.1444C25.1002 34.0094 23.8978 34.4953 22.6439 34.4953C20.033 34.4953 17.9163 32.4303 17.9163 29.883V27.9726L25.3595 20.7109C26.2461 19.846 27.4486 19.36 28.7024 19.36C31.3133 19.36 33.43 21.425 33.43 23.9723ZM46.0444 33.1444L38.6012 25.8828V23.9723C38.6012 21.425 40.7179 19.36 43.3288 19.36C44.5826 19.36 45.7852 19.846 46.6718 20.7109L54.1149 27.9726V29.883C54.1149 32.4303 51.9983 34.4953 49.3873 34.4953C48.1335 34.4953 46.931 34.0094 46.0444 33.1444Z" fill="#F3F3F3"/>
</g>
<path d="M86.5393 25.0679V48H81.4205V25.0679H86.5393ZM93.5166 25.0679V29.0526H74.585V25.0679H93.5166ZM100.604 23.8079V48H95.6901V23.8079H100.604ZM99.9583 38.8807L98.7298 38.9122C98.7298 37.7152 98.8768 36.6179 99.1708 35.6204C99.4753 34.6124 99.9058 33.7357 100.462 32.9902C101.019 32.2447 101.686 31.6672 102.463 31.2577C103.25 30.8482 104.116 30.6434 105.061 30.6434C105.901 30.6434 106.668 30.7642 107.361 31.0057C108.054 31.2472 108.652 31.6304 109.156 32.1554C109.66 32.6804 110.049 33.3682 110.322 34.2187C110.595 35.0692 110.731 36.1034 110.731 37.3214V48H105.786V37.2899C105.786 36.5654 105.681 35.9984 105.471 35.5889C105.271 35.1794 104.977 34.8907 104.589 34.7227C104.211 34.5547 103.749 34.4707 103.203 34.4707C102.562 34.4707 102.032 34.5862 101.612 34.8172C101.192 35.0377 100.861 35.3474 100.62 35.7464C100.378 36.1454 100.205 36.6127 100.1 37.1482C100.006 37.6837 99.9583 38.2612 99.9583 38.8807ZM121.977 48.315C120.622 48.315 119.41 48.0998 118.339 47.6692C117.268 47.2387 116.359 46.6455 115.614 45.8895C114.879 45.123 114.317 44.241 113.929 43.2435C113.54 42.246 113.346 41.1802 113.346 40.0462V39.4477C113.346 38.1772 113.524 37.0064 113.881 35.9354C114.238 34.8644 114.758 33.9352 115.441 33.1477C116.134 32.3497 116.984 31.7354 117.992 31.3049C119 30.8639 120.15 30.6434 121.441 30.6434C122.649 30.6434 123.725 30.8429 124.67 31.2419C125.615 31.6304 126.413 32.1922 127.064 32.9272C127.715 33.6517 128.209 34.5284 128.545 35.5574C128.891 36.5759 129.065 37.7204 129.065 38.9909V41.007H115.33V37.8412H124.245V37.4632C124.245 36.8647 124.135 36.3397 123.914 35.8882C123.704 35.4367 123.389 35.0902 122.969 34.8487C122.56 34.5967 122.04 34.4707 121.41 34.4707C120.811 34.4707 120.313 34.5967 119.914 34.8487C119.515 35.1007 119.194 35.4577 118.953 35.9197C118.722 36.3712 118.554 36.9014 118.449 37.5104C118.344 38.1089 118.291 38.7547 118.291 39.4477V40.0462C118.291 40.7077 118.381 41.3115 118.559 41.8575C118.738 42.4035 119 42.8707 119.347 43.2592C119.693 43.6477 120.113 43.9522 120.607 44.1727C121.1 44.3932 121.662 44.5035 122.292 44.5035C123.069 44.5035 123.809 44.3565 124.513 44.0625C125.216 43.758 125.825 43.2855 126.34 42.645L128.639 45.2752C128.293 45.7792 127.805 46.2675 127.174 46.74C126.555 47.202 125.809 47.58 124.938 47.874C124.066 48.168 123.079 48.315 121.977 48.315ZM136.388 34.9274V48H131.474V30.9584H136.089L136.388 34.9274ZM141.476 30.8324L141.397 35.4157C141.187 35.3842 140.914 35.3579 140.578 35.3369C140.242 35.3054 139.953 35.2897 139.712 35.2897C139.082 35.2897 138.536 35.3684 138.074 35.5259C137.622 35.6729 137.244 35.8934 136.94 36.1874C136.646 36.4814 136.425 36.8489 136.278 37.2899C136.131 37.7204 136.058 38.2192 136.058 38.7862L135.128 38.3294C135.128 37.2059 135.239 36.1769 135.459 35.2424C135.68 34.3079 136 33.4994 136.42 32.8169C136.84 32.1239 137.354 31.5884 137.963 31.2104C138.572 30.8324 139.265 30.6434 140.042 30.6434C140.294 30.6434 140.552 30.6592 140.814 30.6907C141.077 30.7222 141.297 30.7694 141.476 30.8324ZM152.012 43.9365V36.6284C152.012 36.1139 151.934 35.6729 151.776 35.3054C151.619 34.9379 151.372 34.6492 151.036 34.4392C150.7 34.2292 150.264 34.1242 149.729 34.1242C149.277 34.1242 148.883 34.2029 148.547 34.3604C148.222 34.5179 147.97 34.7437 147.791 35.0377C147.623 35.3317 147.539 35.6939 147.539 36.1244H142.625C142.625 35.3579 142.799 34.6439 143.145 33.9824C143.492 33.3209 143.985 32.7382 144.626 32.2342C145.277 31.7302 146.054 31.3417 146.957 31.0687C147.86 30.7852 148.873 30.6434 149.996 30.6434C151.33 30.6434 152.516 30.8692 153.556 31.3207C154.606 31.7617 155.435 32.4284 156.044 33.3209C156.653 34.2029 156.958 35.3159 156.958 36.6599V43.7947C156.958 44.8237 157.016 45.6322 157.131 46.2202C157.257 46.7977 157.436 47.3017 157.667 47.7322V48H152.705C152.474 47.5065 152.301 46.8975 152.186 46.173C152.07 45.438 152.012 44.6925 152.012 43.9365ZM152.627 37.6049L152.658 40.314H150.217C149.671 40.314 149.198 40.3822 148.799 40.5187C148.411 40.6552 148.096 40.8442 147.854 41.0857C147.613 41.3167 147.434 41.5897 147.319 41.9047C147.214 42.2092 147.161 42.5452 147.161 42.9127C147.161 43.2592 147.245 43.5742 147.413 43.8577C147.581 44.1307 147.812 44.346 148.106 44.5035C148.4 44.661 148.742 44.7397 149.13 44.7397C149.771 44.7397 150.317 44.6137 150.768 44.3617C151.23 44.1097 151.587 43.8052 151.839 43.4482C152.091 43.0807 152.217 42.7395 152.217 42.4245L153.398 44.472C153.209 44.892 152.978 45.3277 152.705 45.7792C152.432 46.2202 152.086 46.635 151.666 47.0235C151.246 47.4015 150.737 47.7112 150.138 47.9527C149.55 48.1943 148.841 48.315 148.012 48.315C146.941 48.315 145.97 48.0998 145.098 47.6692C144.227 47.2282 143.528 46.6245 143.003 45.858C142.489 45.0915 142.232 44.2095 142.232 43.212C142.232 42.3195 142.394 41.5267 142.72 40.8337C143.045 40.1407 143.534 39.5527 144.185 39.0697C144.846 38.5867 145.676 38.2244 146.673 37.9829C147.671 37.7309 148.836 37.6049 150.17 37.6049H152.627ZM165.116 34.2344V54.552H160.202V30.9584H164.786L165.116 34.2344ZM175.748 39.2902V39.621C175.748 40.86 175.606 42.0097 175.323 43.0702C175.039 44.1202 174.614 45.039 174.047 45.8265C173.49 46.614 172.803 47.2282 171.984 47.6692C171.164 48.0998 170.214 48.315 169.133 48.315C168.104 48.315 167.211 48.0998 166.455 47.6692C165.71 47.2282 165.08 46.6192 164.565 45.8422C164.061 45.0547 163.652 44.157 163.337 43.149C163.032 42.1305 162.796 41.0437 162.628 39.8887V39.243C162.796 38.0144 163.037 36.8752 163.352 35.8252C163.667 34.7752 164.077 33.8669 164.581 33.1004C165.085 32.3234 165.71 31.7197 166.455 31.2892C167.201 30.8587 168.088 30.6434 169.117 30.6434C170.188 30.6434 171.138 30.8482 171.968 31.2577C172.797 31.6672 173.49 32.2552 174.047 33.0217C174.614 33.7777 175.039 34.6859 175.323 35.7464C175.606 36.8069 175.748 37.9882 175.748 39.2902ZM170.818 39.621V39.2902C170.818 38.5972 170.765 37.9619 170.66 37.3844C170.555 36.7964 170.387 36.2872 170.156 35.8567C169.925 35.4157 169.621 35.0744 169.243 34.8329C168.865 34.5914 168.403 34.4707 167.857 34.4707C167.269 34.4707 166.77 34.5652 166.361 34.7542C165.951 34.9432 165.62 35.2214 165.368 35.5889C165.116 35.9459 164.933 36.3869 164.817 36.9119C164.712 37.4369 164.654 38.0354 164.644 38.7074V40.44C164.654 41.2275 164.765 41.931 164.975 42.5505C165.195 43.1595 165.536 43.6372 165.998 43.9837C166.471 44.3197 167.101 44.4877 167.888 44.4877C168.445 44.4877 168.907 44.367 169.274 44.1255C169.652 43.8735 169.952 43.5217 170.172 43.0702C170.403 42.6187 170.566 42.099 170.66 41.511C170.765 40.923 170.818 40.293 170.818 39.621ZM187.025 30.9584V34.4077H176.913V30.9584H187.025ZM179.229 26.7374H184.158V42.6607C184.158 43.1332 184.216 43.4955 184.332 43.7475C184.447 43.9995 184.636 44.178 184.899 44.283C185.161 44.3775 185.497 44.4247 185.907 44.4247C186.201 44.4247 186.453 44.4142 186.663 44.3932C186.873 44.3722 187.067 44.346 187.245 44.3145V47.874C186.825 48.0105 186.379 48.1155 185.907 48.189C185.434 48.273 184.92 48.315 184.363 48.315C183.303 48.315 182.384 48.1418 181.607 47.7952C180.84 47.4487 180.252 46.9027 179.843 46.1572C179.433 45.4012 179.229 44.4195 179.229 43.212V26.7374ZM194.569 23.8079V48H189.639V23.8079H194.569ZM203.247 46.0312L207.705 30.9584H212.997L206.145 50.5515C205.998 50.982 205.799 51.444 205.547 51.9375C205.305 52.431 204.975 52.9035 204.555 53.355C204.145 53.8065 203.62 54.174 202.98 54.4575C202.339 54.741 201.552 54.8828 200.617 54.8828C200.145 54.8828 199.777 54.8565 199.515 54.804C199.263 54.762 198.927 54.6885 198.507 54.5835L198.491 51.0083C198.627 51.0083 198.748 51.0083 198.853 51.0083C198.969 51.0188 199.084 51.024 199.2 51.024C199.788 51.024 200.26 50.961 200.617 50.835C200.985 50.709 201.268 50.52 201.468 50.268C201.678 50.0265 201.846 49.7168 201.972 49.3388L203.247 46.0312ZM201.751 30.9584L205.279 43.086L205.878 48.2993L202.554 48.4725L196.459 30.9584H201.751Z" fill="#F3F3F3"/>
<defs>
<clipPath id="clip0_1042_169">
<rect width="46.541" height="46.541" fill="white" transform="translate(12.7451 13.7295)"/>
</clipPath>
</defs>
</svg>
