<svg width="21" height="20" viewBox="0 0 21 20" fill="none" xmlns="http://www.w3.org/2000/svg">
<path fill-rule="evenodd" clip-rule="evenodd" d="M2.08691 4.375C2.08691 4.02982 2.36674 3.75 2.71191 3.75H17.7119C18.0571 3.75 18.3369 4.02982 18.3369 4.375V15C18.3369 15.3315 18.2052 15.6495 17.9708 15.8839C17.7364 16.1183 17.4184 16.25 17.0869 16.25H3.33691C3.00539 16.25 2.68745 16.1183 2.45303 15.8839C2.21861 15.6495 2.08691 15.3315 2.08691 15V4.375ZM3.33691 5V15H17.0869V5H3.33691Z" fill="#010023"/>
<path fill-rule="evenodd" clip-rule="evenodd" d="M2.2512 3.95268C2.48444 3.69823 2.8798 3.68104 3.13425 3.91428L10.2119 10.4021L17.2896 3.91428C17.544 3.68104 17.9394 3.69823 18.1726 3.95268C18.4059 4.20713 18.3887 4.60248 18.1342 4.83573L10.6342 11.7107C10.3953 11.9298 10.0285 11.9298 9.78959 11.7107L2.28959 4.83573C2.03514 4.60248 2.01795 4.20713 2.2512 3.95268Z" fill="#010023"/>
</svg>
